<svg width="121" height="33" viewBox="0 0 121 33" fill="none" xmlns="http://www.w3.org/2000/svg">
<path d="M14 4.33331V27.6666M22.2496 7.7504L5.7504 24.2496M25.6666 16H2.33331M22.2496 24.2496L5.7504 7.7504" stroke="#C1F17E" stroke-width="2.5" stroke-linecap="round" stroke-linejoin="round"/>
<path d="M37.712 26.5V9H32.308V5.64H46.868V9H41.548V26.5H37.712ZM50.7158 26.836C49.6518 26.836 48.7278 26.6587 47.9438 26.304C47.1598 25.9493 46.5531 25.4453 46.1238 24.792C45.6945 24.12 45.4798 23.3453 45.4798 22.468C45.4798 21.628 45.6665 20.8813 46.0398 20.228C46.4131 19.556 46.9918 18.996 47.7758 18.548C48.5598 18.1 49.5491 17.7827 50.7438 17.596L55.7278 16.784V19.584L51.4438 20.312C50.7158 20.4427 50.1745 20.676 49.8198 21.012C49.4651 21.348 49.2878 21.7867 49.2878 22.328C49.2878 22.8507 49.4838 23.2707 49.8758 23.588C50.2865 23.8867 50.7905 24.036 51.3878 24.036C52.1531 24.036 52.8251 23.8773 53.4038 23.56C54.0011 23.224 54.4585 22.7667 54.7758 22.188C55.1118 21.6093 55.2798 20.9747 55.2798 20.284V16.364C55.2798 15.7107 55.0185 15.1693 54.4958 14.74C53.9918 14.292 53.3198 14.068 52.4798 14.068C51.6958 14.068 50.9958 14.2827 50.3798 14.712C49.7825 15.1227 49.3438 15.6733 49.0638 16.364L46.0678 14.908C46.3665 14.1053 46.8331 13.4147 47.4678 12.836C48.1211 12.2387 48.8865 11.772 49.7638 11.436C50.6411 11.1 51.5931 10.932 52.6198 10.932C53.8705 10.932 54.9718 11.1653 55.9238 11.632C56.8758 12.08 57.6131 12.7147 58.1358 13.536C58.6771 14.3387 58.9478 15.2813 58.9478 16.364V26.5H55.4758V23.896L56.2598 23.84C55.8678 24.4933 55.4011 25.044 54.8598 25.492C54.3185 25.9213 53.7025 26.2573 53.0118 26.5C52.3211 26.724 51.5558 26.836 50.7158 26.836ZM67.014 26.836C65.39 26.836 63.9713 26.4533 62.758 25.688C61.5633 24.904 60.742 23.8493 60.294 22.524L63.038 21.208C63.43 22.0667 63.9713 22.7387 64.662 23.224C65.3713 23.7093 66.1553 23.952 67.014 23.952C67.686 23.952 68.218 23.8027 68.61 23.504C69.002 23.2053 69.198 22.8133 69.198 22.328C69.198 22.0293 69.114 21.7867 68.946 21.6C68.7967 21.3947 68.582 21.2267 68.302 21.096C68.0407 20.9467 67.7513 20.8253 67.434 20.732L64.942 20.032C63.654 19.6587 62.674 19.0893 62.002 18.324C61.3487 17.5587 61.022 16.6533 61.022 15.608C61.022 14.6747 61.2553 13.8627 61.722 13.172C62.2073 12.4627 62.87 11.912 63.71 11.52C64.5687 11.128 65.5487 10.932 66.65 10.932C68.0873 10.932 69.3567 11.2773 70.458 11.968C71.5593 12.6587 72.3433 13.6293 72.81 14.88L70.01 16.196C69.7487 15.5053 69.31 14.9547 68.694 14.544C68.078 14.1333 67.3873 13.928 66.622 13.928C66.006 13.928 65.5207 14.068 65.166 14.348C64.8113 14.628 64.634 14.992 64.634 15.44C64.634 15.72 64.7087 15.9627 64.858 16.168C65.0073 16.3733 65.2127 16.5413 65.474 16.672C65.754 16.8027 66.0713 16.924 66.426 17.036L68.862 17.764C70.1127 18.1373 71.074 18.6973 71.746 19.444C72.4367 20.1907 72.782 21.1053 72.782 22.188C72.782 23.1027 72.5393 23.9147 72.054 24.624C71.5687 25.3147 70.8967 25.856 70.038 26.248C69.1793 26.64 68.1713 26.836 67.014 26.836ZM74.4808 26.5V5.304H78.1488V19.192L76.7488 18.772L83.9168 11.268H88.4808L82.8528 17.4L88.5928 26.5H84.3928L79.4088 18.604L81.5928 18.156L77.0008 23.084L78.1488 20.844V26.5H74.4808ZM89.521 26.5V11.268H93.189V26.5H89.521ZM89.521 9.56V5.64H93.189V9.56H89.521ZM97.2197 26.5V14.544H94.5317V11.268H97.2197V10.764C97.2197 9.60667 97.453 8.62667 97.9197 7.824C98.405 7.00267 99.077 6.37733 99.9357 5.948C100.794 5.51867 101.812 5.304 102.988 5.304C103.212 5.304 103.454 5.32267 103.716 5.36C103.996 5.37867 104.229 5.40667 104.416 5.444V8.608C104.229 8.57067 104.052 8.552 103.884 8.552C103.734 8.53333 103.594 8.524 103.464 8.524C102.642 8.524 102.008 8.71067 101.56 9.084C101.112 9.43867 100.888 9.99867 100.888 10.764V11.268H104.276V14.544H100.888V26.5H97.2197ZM107.559 32.66C107.148 32.66 106.747 32.6227 106.355 32.548C105.963 32.492 105.608 32.38 105.291 32.212V29.16C105.533 29.216 105.823 29.272 106.159 29.328C106.513 29.384 106.84 29.412 107.139 29.412C107.979 29.412 108.585 29.216 108.959 28.824C109.351 28.4507 109.696 27.9467 109.995 27.312L111.003 24.96L110.947 28.04L104.311 11.268H108.259L112.907 23.644H111.507L116.127 11.268H120.103L113.467 28.04C113.075 29.0107 112.599 29.8413 112.039 30.532C111.479 31.2227 110.825 31.7453 110.079 32.1C109.351 32.4733 108.511 32.66 107.559 32.66Z" fill="#C1F17E"/>
</svg>
